<svg width="48" height="48" viewBox="0 0 48 48" fill="none" xmlns="http://www.w3.org/2000/svg">
<g clip-path="url(#clip0_70_832)">
<path d="M6 34C6 35.1046 6.89543 36 8 36H40C41.1046 36 42 35.1046 42 34C42 32.8954 41.1046 32 40 32H8C6.89543 32 6 32.8954 6 34ZM6 24C6 25.1046 6.89543 26 8 26H40C41.1046 26 42 25.1046 42 24C42 22.8954 41.1046 22 40 22H8C6.89543 22 6 22.8954 6 24ZM8 12C6.89543 12 6 12.8954 6 14C6 15.1046 6.89543 16 8 16H24H40C41.1046 16 42 15.1046 42 14C42 12.8954 41.1046 12 40 12H8Z" fill="white"/>
</g>
<defs>
<clipPath id="clip0_70_832">
<rect width="48" height="48" fill="white"/>
</clipPath>
</defs>
</svg>
