<svg width="114" height="80" viewBox="0 0 114 80" fill="none" xmlns="http://www.w3.org/2000/svg">
<path fill-rule="evenodd" clip-rule="evenodd" d="M57 0C88.4749 0 114 17.9127 114 40C114 62.0873 88.4749 80 57 80C25.5251 80 0 62.0873 0 40C0 17.9127 25.5251 0 57 0Z" fill="#F7E123"/>
<path fill-rule="evenodd" clip-rule="evenodd" d="M57.0023 1.6875V1.69382H57H56.9955V1.6875C41.6677 1.68787 27.8101 6.03493 17.7986 13.0606C7.93007 19.9859 1.82462 29.5133 1.82422 39.9985H1.83146V40V40.0023H1.82422C1.82502 50.487 7.93006 60.0136 17.7979 66.939C27.8099 73.9655 41.6686 78.3124 56.9977 78.3126V78.306H57H57.0046V78.3126C72.3323 78.312 86.1898 73.9651 96.2013 66.9394C106.07 60.0141 112.176 50.4866 112.176 40.0015H112.169V40V39.9977H112.176C112.175 29.5132 106.07 19.9863 96.2021 13.061C86.1901 6.03493 72.3312 1.6875 57.0023 1.6875Z" fill="#353980"/>
<path fill-rule="evenodd" clip-rule="evenodd" d="M57.0016 12.0947V12.0995H57H56.9968V12.0947C46.3127 12.0952 36.6533 15.2613 29.6747 20.3785C22.7959 25.4228 18.54 32.3622 18.5398 39.999H18.5447V40V40.0017H18.5398C18.5403 47.6382 22.7959 54.5771 29.6742 59.6213C36.6531 64.7388 46.3133 67.9052 56.9985 67.9053V67.9006H57H57.0032V67.9053C67.6874 67.9049 77.3468 64.7388 84.3254 59.6216C91.204 54.5773 95.4602 47.6379 95.4602 40.0011H95.4553V40V39.9984H95.4602C95.4598 32.3618 91.204 25.4229 84.3258 20.379C77.3468 15.2613 67.6866 12.0949 57.0016 12.0947Z" fill="#F7E123"/>
<path fill-rule="evenodd" clip-rule="evenodd" d="M57.7144 14.217H57.0018H56.9998H55.8092C51.1569 14.325 46.7252 15.0643 42.6702 16.3197C41.7393 16.6079 40.8006 16.9354 39.8575 17.2996C38.9339 17.6562 38.0438 18.0365 37.1906 18.4371C34.9852 19.4728 32.9418 20.6801 31.0962 22.0336L31.0939 22.0309V22.0353C30.1818 22.704 29.3295 23.3977 28.5426 24.1127C27.744 24.838 27.0008 25.5913 26.3177 26.3688C23.003 30.1423 21.0141 34.5697 20.8337 39.2935V39.9986V39.9997V40.0018V40.6993C20.9116 42.7532 21.3311 44.7534 22.0535 46.6675C22.3198 47.3731 22.6221 48.0583 22.9579 48.7202C24.7232 52.2004 27.5242 55.348 31.0955 57.9662L31.1267 57.995C32.0317 58.6567 32.9867 59.2852 33.9863 59.8755C34.9577 60.4493 36.0209 61.0085 37.1709 61.5496C42.6929 64.1477 49.2515 65.6887 56.3138 65.7828H56.9984H56.9998H57.0034H58.142C62.8124 65.679 67.2604 64.94 71.3295 63.6801C72.2604 63.392 73.1991 63.0644 74.1425 62.7002C75.0658 62.3436 75.9558 61.9635 76.8093 61.5627C79.0148 60.5271 81.0579 59.3195 82.9035 57.9662L82.9058 57.969V57.9645C83.818 57.2958 84.6702 56.6021 85.4571 55.8871C86.2558 55.1619 86.9989 54.4085 87.6822 53.631C90.9933 49.8617 92.982 45.439 93.1662 40.7209V40.0012V39.9997V39.9982V39.2683C93.0853 37.2252 92.6651 35.2367 91.9464 33.3323C91.6802 32.6267 91.3777 31.9415 91.0419 31.2796C89.2768 27.7994 86.4757 24.6518 82.9044 22.0336L82.8687 22.0004L82.866 21.9982C81.963 21.3389 81.0098 20.7127 80.0135 20.1243C79.042 19.5505 77.9788 18.9913 76.8288 18.4503C71.3139 15.8555 64.7661 14.3145 57.7144 14.217Z" fill="#BBBDBF"/>
<path fill-rule="evenodd" clip-rule="evenodd" d="M57.5828 15.5817L57.5832 19.9835C58.6368 19.9697 59.6882 19.9227 60.7287 19.8423C59.7781 18.1955 58.7222 16.7557 57.5828 15.5817ZM57.5832 21.0369L57.5839 29.6356C59.9084 29.6325 62.2159 29.5645 64.4786 29.4332C63.6907 26.2814 62.6039 23.3608 61.2852 20.8518C60.0629 20.9584 58.8238 21.0204 57.5832 21.0369ZM57.5839 30.6914L57.5846 39.5451H65.8833C65.8703 39.1504 65.8529 38.7563 65.8302 38.3629C65.6753 35.6613 65.2964 33.0016 64.7262 30.4742C62.3828 30.6141 59.9919 30.6874 57.5839 30.6914ZM57.5846 40.6038L57.5853 49.8117C60.0853 49.816 62.567 49.8945 64.9961 50.0455C65.6542 46.9722 65.9403 43.7774 65.9069 40.6038H57.5846ZM57.5853 50.8671L57.586 59.4696C58.8445 59.487 60.1014 59.5505 61.341 59.6604C62.893 57.0356 64.0139 54.13 64.7571 51.0871C62.4056 50.9448 60.0048 50.8704 57.5853 50.8671ZM57.586 60.5239L57.5864 64.5555C58.7662 63.3634 59.8077 62.059 60.7175 60.6651C59.6818 60.5848 58.6348 60.5381 57.586 60.5239ZM56.4465 64.5548L56.4461 60.5216C55.3945 60.5313 54.3446 60.5738 53.3053 60.6494C54.2175 62.0491 55.2622 63.3585 56.4465 64.5548ZM56.4461 59.4666L56.4454 50.8704C54.0614 50.8891 51.665 50.9767 49.2856 51.1351C50.0275 54.1521 51.1413 57.0331 52.6791 59.6384C53.9218 59.5346 55.1823 59.4772 56.4461 59.4666ZM56.4454 49.8145L56.4447 40.6038H48.1222C48.0889 43.7931 48.3783 47.0038 49.0444 50.0908C51.5025 49.9242 53.9801 49.8327 56.4454 49.8145ZM56.4447 39.5451L56.444 30.6887C54.0687 30.6711 51.6818 30.5858 49.312 30.431C48.7363 32.9711 48.3533 35.645 48.1977 38.3616C48.175 38.7555 48.1583 39.1497 48.1453 39.5451H56.4447ZM56.444 29.6325L56.4433 21.0395C55.1995 21.0287 53.9586 20.9723 52.7352 20.8713C51.427 23.3636 50.3473 26.2613 49.5619 29.3871C51.8498 29.5336 54.1527 29.6149 56.444 29.6325ZM56.4433 19.9856L56.4429 15.5898C55.302 16.7652 54.245 18.207 53.2941 19.8554C54.3358 19.9318 55.389 19.9756 56.4433 19.9856ZM46.2326 60.6528C47.5913 60.3261 49.0126 60.0667 50.4688 59.8753C50.7948 59.8325 51.1228 59.7931 51.4526 59.7569C49.954 57.1224 48.8652 54.2325 48.1368 51.2171C46.6993 51.327 45.2701 51.4635 43.8559 51.6264C41.7739 51.8665 39.7268 52.1638 37.7365 52.5206C37.9744 52.8793 38.2232 53.2344 38.4837 53.5852C40.4376 56.2161 43.022 58.6192 46.2326 60.6528ZM50.63 60.9217C49.575 61.0604 48.5438 61.2343 47.546 61.4437C49.786 62.7258 52.3018 63.8362 55.0912 64.7342C53.946 63.5059 52.9348 62.1731 52.0503 60.7576C51.5733 60.8051 51.0994 60.8599 50.63 60.9217ZM62.5641 59.7841C64.3524 59.9888 66.0937 60.2922 67.7408 60.6941C70.9853 58.6504 73.5935 56.2303 75.5623 53.5793C75.8434 53.2009 76.1114 52.8172 76.3666 52.4297C73.098 51.8466 69.5706 51.4206 65.9072 51.162C65.1769 54.2075 64.0789 57.1262 62.5641 59.7841ZM66.4318 61.4782C64.9986 61.1714 63.5009 60.9383 61.9696 60.7788C61.0881 62.1869 60.0816 63.5127 58.9417 64.7351C61.7082 63.8449 64.2055 62.7459 66.4318 61.4782ZM37.127 51.5542C39.2718 51.1595 41.477 50.8342 43.7172 50.5761C45.0993 50.4169 46.4963 50.2831 47.901 50.174C47.2379 47.0533 46.9488 43.8168 46.9811 40.6038H33.9501C34.0062 44.3661 35.068 48.1112 37.127 51.5542ZM66.141 50.1221C69.9389 50.3953 73.5933 50.8463 76.97 51.4646C78.9953 48.0464 80.0393 44.3335 80.0954 40.6038H67.0482C67.0807 43.7988 66.7957 47.0175 66.141 50.1221ZM33.9613 39.5451H47.0035C47.0166 39.132 47.0342 38.7195 47.0578 38.3078C47.2137 35.5876 47.5952 32.9062 48.1684 30.3511C46.6734 30.2393 45.187 30.0992 43.7172 29.9304C41.4818 29.6738 39.2814 29.3496 37.1405 28.957C35.1463 32.3119 34.0888 35.9259 33.9613 39.5451ZM67.0255 39.5451H80.0849C79.959 35.9577 78.9194 32.3744 76.9579 29.0445C73.5045 29.6742 69.7611 30.1298 65.8709 30.4003C66.4379 32.941 66.815 35.6056 66.9701 38.3091C66.9937 38.7204 67.0123 39.1324 67.0255 39.5451ZM37.7464 27.9895C39.7335 28.3446 41.7771 28.6413 43.8559 28.8801C45.3609 29.0529 46.8834 29.1948 48.4144 29.3077C49.1879 26.191 50.2493 23.2861 51.5371 20.7572C50.8177 20.6797 50.1056 20.5868 49.4051 20.4773C48.2693 20.2998 47.1626 20.0803 46.0973 19.8198C42.803 21.9902 40.1821 24.5279 38.2305 27.2808C38.0641 27.5157 37.9032 27.7518 37.7464 27.9895ZM65.627 29.3604C69.3875 29.105 73.0087 28.6746 76.3582 28.0795C76.1835 27.8121 76.0027 27.5468 75.8157 27.2832C73.8508 24.5121 71.2082 21.9587 67.8816 19.7785C66.1678 20.2041 64.3495 20.5224 62.481 20.7329C63.7804 23.2816 64.8499 26.2139 65.627 29.3604ZM47.3661 19.0224C48.0926 19.1789 48.8361 19.3167 49.5928 19.4351C50.4061 19.5623 51.2347 19.6672 52.073 19.7502C52.9712 18.1341 53.9668 16.6957 55.0406 15.4829C52.1926 16.4685 49.6347 17.6623 47.3661 19.0224ZM61.9483 19.7322C63.554 19.5659 65.1234 19.318 66.6199 18.9894C64.3625 17.6422 61.8197 16.4588 58.9907 15.481C60.0604 16.6898 61.0526 18.1225 61.9483 19.7322ZM57.7144 14.217H55.8092C52.8887 14.2836 48.259 17.0709 45.87 18.5938C45.5784 18.5178 45.2897 18.439 45.0054 18.3564C43.5728 17.9402 42.239 17.4409 41.0444 16.8598L41.0439 16.8596C40.6495 16.9994 40.2537 17.1465 39.8575 17.2996L39.7014 17.3602C40.0299 17.5376 40.4284 17.7536 40.5124 17.7945C41.7716 18.4071 43.1697 18.9309 44.6658 19.3656L44.6971 19.3745C41.6203 21.5123 39.142 23.9719 37.2607 26.6257C37.011 26.978 36.7724 27.3334 36.5438 27.6923C36.0548 27.5978 35.5689 27.5011 35.088 27.3994C32.3426 26.8192 29.7304 26.1196 27.3127 25.2972C27.0394 25.5767 26.7732 25.8598 26.5157 26.1463L26.7169 26.2183L26.7531 26.2308C29.2737 27.0971 31.9893 27.8284 34.833 28.4294C35.2054 28.5081 35.5806 28.5841 35.9573 28.6584C33.9789 32.0891 32.9313 35.7754 32.8074 39.4688L20.8337 39.4794V39.9997V40.5381L32.7969 40.5276C32.8516 44.3646 33.9032 48.1817 35.9443 51.7015C35.5718 51.7752 35.201 51.8513 34.833 51.9294C31.9951 52.5309 29.2851 53.2625 26.7689 54.129C27.0332 54.415 27.3054 54.6971 27.5851 54.9751C29.9268 54.1897 32.4458 53.5194 35.088 52.9593C35.5657 52.8581 36.0482 52.7603 36.5337 52.6663C36.8455 53.1522 37.1762 53.632 37.5271 54.1044C39.4009 56.6274 41.8295 58.947 44.8079 60.9472C43.6097 61.2898 42.4725 61.6897 41.4182 62.1456C40.9517 62.3472 40.5037 62.559 40.0773 62.7796L40.0784 62.7817C40.5403 62.9573 41.0078 63.1262 41.4811 63.2876C41.6201 63.224 41.7597 63.1622 41.9011 63.101C43.1477 62.5619 44.5222 62.1037 45.9852 61.7279C46.0135 61.7206 50.3548 64.4276 54.9994 65.7482C55.4355 65.7652 55.8736 65.7768 56.314 65.7828H58.142C61.198 65.7161 65.4182 63.2933 67.9333 61.7603C69.5503 62.1808 71.0626 62.7021 72.4218 63.3246C72.8853 63.1667 73.3509 62.9996 73.8176 62.8234L73.8233 62.8141C72.4248 62.0931 70.8431 61.4858 69.1371 60.9927C72.1501 58.9807 74.6032 56.6428 76.4928 54.0985C76.864 53.5984 77.2138 53.0902 77.5418 52.5748C80.8339 53.2136 83.8361 54.0167 86.4162 54.9749C86.709 54.6833 86.9933 54.388 87.2688 54.0887C84.6777 53.1653 81.1907 52.2201 78.1246 51.6116C80.133 48.1167 81.1678 44.332 81.2225 40.5276H93.1662V39.9997V39.4688H81.2127C81.0904 35.8067 80.0595 32.1518 78.1132 28.7463C81.5208 28.0728 84.6187 27.2245 87.2604 26.2122L87.4775 26.1391C87.2197 25.8526 86.9539 25.57 86.6808 25.2913C84.04 26.2907 80.9416 27.1248 77.5338 27.7831C77.2882 27.3941 77.0298 27.0092 76.7594 26.628C74.8637 23.9541 72.3625 21.4776 69.2527 19.3284C70.915 18.8409 72.4566 18.2444 73.8233 17.5376L74.2356 17.338C73.7787 17.1601 73.3166 16.9894 72.8485 16.8255C71.4234 17.5196 69.8154 18.0964 68.0851 18.5555C65.4214 16.866 62.3505 15.4058 58.8717 14.2458C58.4874 14.2319 58.1019 14.2224 57.7144 14.217Z" fill="#4782A5"/>
<path fill-rule="evenodd" clip-rule="evenodd" d="M76.0245 44.3457C76.0089 44.4329 75.9917 44.5195 75.9746 44.6065L75.9739 44.6063C75.8803 45.0789 75.7747 45.5147 75.6578 45.9121H75.6534C75.0052 48.1119 73.8515 50.1218 72.1943 51.9384L72.1954 51.9392L72.1934 51.9416L72.1801 51.9541C71.7388 52.4364 71.2742 52.89 70.7868 53.3128C70.3075 53.7287 69.7945 54.1219 69.2491 54.4903C66.5002 56.3465 63.1842 57.3372 59.2718 57.3372H59.267V57.333C57.4921 57.3326 55.8232 57.0939 54.2741 56.6594C53.9882 56.5792 53.7389 56.5038 53.5276 56.4344C52.257 56.0157 51.0754 55.465 49.9911 54.8079L49.9822 54.8037L49.9801 54.8024L49.9806 54.8018C49.8183 54.7034 49.6208 54.5759 49.3917 54.4236C49.1611 54.2703 48.9687 54.1374 48.8141 54.0247C48.6116 53.8771 48.4135 53.7257 48.2188 53.5695V56.2404V57.2991H47.0743H44.7894L43.6449 57.2993V56.2404V47.0359V45.9771H44.7894H47.074H47.0743H48.2188V46.7881C49.5748 49.2016 51.6131 50.93 53.936 51.9511C56.0874 52.897 58.4819 53.2413 60.8045 52.9662C63.1221 52.6918 65.372 51.7999 67.2393 50.2736C69.0584 48.7868 70.5224 46.689 71.3455 43.9607C69.3731 44.0551 67.3423 44.366 65.2733 44.683C60.5781 45.4027 55.69 46.152 50.3331 44.6393L49.5171 44.409L49.524 43.6219L49.5379 42.0302L49.5395 41.8395L49.547 40.9738L49.5642 39.023L49.577 37.5711L51.0619 38.0263C55.6474 39.4321 60.2456 38.7355 64.8432 38.0391C66.7124 37.756 68.5823 37.4733 70.4812 37.321C69.0515 34.4856 66.9914 32.5938 64.6771 31.5163C63.1691 30.8146 61.5489 30.4527 59.9231 30.3966C58.2873 30.3402 56.6397 30.5927 55.0892 31.118C52.2277 32.0873 49.7125 33.9854 48.2188 36.5837V37.3901H47.0743H47.074H44.7894H43.6449V36.3313V27.1268V26.0683L44.7894 26.0681H47.0743L48.2188 26.0683V27.1268V29.6214C48.7354 29.2102 49.2998 28.8224 49.9218 28.4559L49.9263 28.4517L49.9307 28.4491L49.9316 28.4504C50.3123 28.2266 50.7019 28.0176 51.0992 27.8254C51.5282 27.6179 51.9361 27.4389 52.322 27.2892H52.3266C54.4606 26.4615 56.8176 26.0471 59.3961 26.0471H59.3993V26.0514C62.0621 26.0518 64.4491 26.5979 66.5671 27.5693C66.901 27.7224 67.2396 27.8929 67.5804 28.0786C69.2743 29.0014 70.7756 30.2014 72.0906 31.6084C73.0646 32.6504 73.8717 33.6981 74.5082 34.7943C75.0274 35.6885 75.4346 36.6142 75.726 37.5929C75.8304 37.6077 75.9242 37.6215 76.0064 37.635C76.9236 37.7843 77.9216 38.0202 78.8699 38.2914L79.6793 38.5231L79.6791 39.3006V40.9215V41.2345V42.0027V42.437V43.9213V45.4046L78.1635 44.918L78.1246 44.9055C77.9264 44.842 77.7332 44.7825 77.5462 44.7274C77.3484 44.6692 77.1694 44.6186 77.0106 44.5762C76.6526 44.4807 76.3241 44.4047 76.0245 44.3457Z" fill="#1A2128"/>
<path fill-rule="evenodd" clip-rule="evenodd" d="M28.609 41.2255C29.7214 41.4846 30.3642 40.8996 30.4486 40.1274C30.4743 40.0336 30.488 39.9394 30.4885 39.8479C30.4889 39.7522 30.4763 39.6416 30.4525 39.5199C30.3209 38.7288 29.6571 38.2488 28.609 38.4222V41.2255ZM29.1368 44.1277L29.1366 44.9181H29.8842L29.8846 45.9768L29.8853 47.1834L29.886 48.2421H28.7454H27.7534H26.7858H26.6089H25.6413H23.3567H22.2174L22.2167 47.1834L22.2161 45.9768L22.2156 44.9181H23.0058L22.9895 38.4146H22.1776L22.1948 37.3434L22.2167 35.9776L22.2337 34.9314H23.3567H25.6413H26.6089H26.7858H27.2242H27.7534V34.9367C29.043 34.9619 30.3331 35.0955 31.4038 35.5793C32.7969 36.2086 33.7416 37.33 33.7604 39.3249C33.7768 41.0915 33.2408 42.3202 32.1874 43.1257C31.408 43.7215 30.3887 44.037 29.1368 44.1277Z" fill="#F7E123"/>
<path fill-rule="evenodd" clip-rule="evenodd" d="M42.0199 39.7992H40.4556H39.3257L39.3157 38.7487L39.3134 38.5039L39.1223 38.5063V44.8567H39.9511V45.9154V47.1833V48.2421H38.8066H37.7393H36.7717H36.5947H35.6272H35.4459H34.3014V48.2378H33.4261H32.2816V47.1833V45.9154V44.8567H33.1045V38.476H32.2816V37.4172V35.9901V34.9356H33.4261H34.3014V34.9314H35.4459H36.5947H37.7393V34.9356H42.0199H43.1644V35.9901V38.7405V39.7992H42.0199Z" fill="#F7E123"/>
<path fill-rule="evenodd" clip-rule="evenodd" d="M73.9173 42.311C73.9017 42.3982 73.8845 42.4848 73.8674 42.5719L73.8667 42.5716C73.7731 43.0443 73.6675 43.48 73.5506 43.8775H73.5462C72.898 46.0773 71.7443 48.0871 70.0871 49.9037L70.0883 49.9046L70.0862 49.9069L70.0729 49.9194C69.6316 50.4018 69.1669 50.8553 68.6796 51.2781C68.2003 51.694 67.6873 52.0872 67.1419 52.4557C64.393 54.3118 61.077 55.3026 57.1646 55.3026H57.1598V55.2983C55.3849 55.2979 53.716 55.0593 52.1668 54.6248C51.8809 54.5445 51.6317 54.4692 51.4204 54.3997C50.1498 53.9811 48.9682 53.4303 47.8839 52.7733L47.875 52.769L47.873 52.7678L47.8734 52.7671C47.7111 52.6687 47.5136 52.5412 47.2844 52.389C47.054 52.2357 46.8614 52.1027 46.7069 51.99C46.5044 51.8425 46.3064 51.691 46.1116 51.5348V54.2057V55.2644H44.9671H42.6822L41.5377 55.2647V54.2057V45.0012V43.9425H42.6822H44.9668H44.9671H46.1116V44.7535C47.4676 47.1669 49.5059 48.8954 51.8288 49.9164C53.9802 50.8623 56.3747 51.2066 58.6973 50.9315C61.0149 50.6571 63.2648 49.7652 65.1322 48.239C66.9512 46.7521 68.4152 44.6544 69.2384 41.9261C67.2659 42.0205 65.2352 42.3313 63.1661 42.6483C58.471 43.368 53.5828 44.1174 48.2259 42.6047L47.4099 42.3743L47.4167 41.5872L47.4307 39.9956L47.4323 39.8048L47.4399 38.9392L47.457 36.9884L47.4699 35.5364L48.9547 35.9917C53.5402 37.3974 58.1384 36.7008 62.736 36.0044C64.6052 35.7213 66.4751 35.4386 68.374 35.2863C66.9443 32.4509 64.8843 30.5592 62.5698 29.4816C61.0619 28.7799 59.4417 28.418 57.8158 28.3619C56.1801 28.3056 54.5325 28.558 52.982 29.0833C50.1205 30.0527 47.6054 31.9508 46.1116 34.5491V35.3554H44.9671H44.9668H42.6822H41.5377V34.2967V25.0921V24.0336L42.6822 24.0334H44.9671L46.1116 24.0336V25.0921V27.5867C46.6282 27.1755 47.1927 26.7878 47.8146 26.4212L47.8191 26.417L47.8235 26.4145L47.8244 26.4157C48.2051 26.1919 48.5946 25.9829 48.992 25.7907C49.421 25.5832 49.8289 25.4042 50.2148 25.2545H50.2194C52.3534 24.4269 54.7104 24.0125 57.2889 24.0125H57.2921V24.0167C59.9549 24.0171 62.3419 24.5632 64.4599 25.5347C64.7938 25.6878 65.1324 25.8582 65.4732 26.0439C67.167 26.9667 68.6684 28.1666 69.9834 29.5737C70.9574 30.6157 71.7645 31.6634 72.4011 32.7596C72.9202 33.6538 73.3274 34.5796 73.6188 35.5582C73.7232 35.5731 73.817 35.5868 73.8992 35.6004C74.8164 35.7497 75.8144 35.9855 76.7627 36.2568L77.5721 36.4884L77.5719 37.266V38.8869V39.1998V39.968V40.4023V41.8867V43.3699L76.0564 42.8834L76.0174 42.8709C75.8192 42.8073 75.626 42.7478 75.439 42.6928C75.2413 42.6345 75.0622 42.5839 74.9034 42.5416C74.5454 42.4461 74.2169 42.3701 73.9173 42.311Z" fill="#F6E125"/>
<path fill-rule="evenodd" clip-rule="evenodd" d="M90.6824 34.8794L91.8221 34.8854V35.9339V37.4073V38.466H91.0069L91.0881 43.4473V43.4515L91.0886 43.4978V43.5144C91.0869 43.6685 91.0725 43.8189 91.0463 43.9608C91.0234 44.0852 90.9856 44.2294 90.9357 44.3897C90.2911 46.4515 88.7174 47.9352 86.3656 48.3506L81.7261 48.3625L80.5882 48.3654L80.5861 47.308L80.5822 45.1188L80.5804 44.0325L81.7536 44.0643L83.1697 44.1028L84.2282 44.1318L84.2659 44.8672L85.0339 44.8732L85.0284 44.204L84.7256 44.1816L84.6363 44.1693C83.1844 43.9561 82.2131 43.425 81.5507 42.6911C80.9032 41.9735 80.5971 41.106 80.4406 40.1737L80.4273 40.0937V40.0123L80.4312 38.466H79.6946V37.4073V35.9339V34.8687L80.848 34.8794L83.7246 34.9067C83.98 34.9093 84.2357 34.9099 84.4916 34.9106L84.439 38.3715L83.9139 38.3624L83.9052 40.1563C83.9018 40.9311 84.8915 41.5655 85.4864 41.5714L85.4665 38.3895L84.5802 38.3741L84.6329 34.9112C86.6474 34.914 88.6675 34.8693 90.6824 34.8794Z" fill="#F7E123"/>
<path fill-rule="evenodd" clip-rule="evenodd" d="M35.269 47.1832H33.4261V45.9153H34.249V37.4171H33.4261V35.99H35.269V47.1832ZM35.4459 47.1832H36.5948V35.99H35.4459V47.1832ZM42.0199 38.7403H40.4556L40.4433 37.4362L37.9778 37.4646V45.9153H38.8066V47.1832H36.7717V35.99H42.0199V38.7403Z" fill="#1A2128"/>
<path fill-rule="evenodd" clip-rule="evenodd" d="M72.9373 41.1107C72.615 44.1552 71.3698 46.8644 69.203 49.2345C66.2431 52.4708 62.2562 54.2437 57.1646 54.2437C53.8442 54.2437 50.9303 53.355 48.5097 51.8881C47.1589 51.0692 45.978 50.0791 44.967 48.9198V54.2056H42.6821V45.0011H44.9668H44.967V45.0015C50.5617 55.4456 67.7667 54.5495 70.6893 40.8439C63.7575 40.756 56.5827 43.8619 48.5566 41.5954L48.5706 40.0037C58.5462 41.8599 64.3959 39.3958 70.4345 39.2192V38.0421C64.6411 38.1964 58.5119 40.4994 48.5797 38.9473L48.5969 36.9965C55.866 39.2251 62.8923 36.4955 70.0397 36.245C65.1108 23.7959 49.759 25.488 44.967 34.2961V34.2966H44.9668H42.6821V25.092H44.967V30.274C45.892 29.1164 47.0019 28.1502 48.427 27.3102C50.9587 25.8177 53.9128 25.071 57.2888 25.071C62.2427 25.071 66.1632 27.1002 69.1204 30.2643C70.9571 32.2293 72.1576 34.2046 72.6956 36.5129C73.8229 36.6135 75.1755 36.908 76.4273 37.2659V38.8867C75.2558 38.4889 74.1177 38.2534 72.986 38.1338V39.2975C74.0992 39.404 75.2377 39.6143 76.4273 39.9679V41.8865C74.9326 41.405 73.757 41.1594 72.9373 41.1107Z" fill="#1A2128"/>
<path fill-rule="evenodd" clip-rule="evenodd" d="M88.8449 35.9245L90.6775 35.9338V37.4071H89.8499L89.948 43.4596C89.9661 44.0521 89.508 45.0522 88.8449 45.8828V35.9245ZM87.5101 35.9177L88.6679 35.9236V46.0944C88.3172 46.496 87.9191 46.8416 87.5101 47.0576V35.9177ZM86.2489 41.7164L86.2173 37.3883L85.3047 37.3798V35.9065L87.3331 35.9169V47.1427C87.0934 47.2463 86.8521 47.3022 86.6141 47.2954L81.7261 47.3079L81.7222 45.1187L83.1384 45.1572L83.1773 45.9133L86.1827 45.9364L86.16 43.2267L84.815 43.127C82.5224 42.7903 81.8222 41.5306 81.5672 40.0122L81.5736 37.4071H80.8391V35.9338L83.7156 35.9611V37.4344H83.1963L83.1839 40.1617C83.3052 40.8918 83.8336 41.4093 84.7688 41.7145L86.2489 41.7164Z" fill="#1A2128"/>
<path fill-rule="evenodd" clip-rule="evenodd" d="M26.6089 47.1832H23.3567L23.356 45.9767H24.1482L24.1269 37.3557H23.3347L23.3567 35.99H26.6089V47.1832ZM28.0203 41.7473C29.9277 41.9777 31.183 41.053 31.188 39.6324C31.194 37.9713 29.8998 37.3291 28.0203 37.4752V41.7473ZM27.9971 43.0957L27.9965 45.9767H28.7447L28.7454 47.1832H26.7858V35.99H27.2242C29.8675 35.99 32.5923 36.3165 32.6205 39.333C32.647 42.1748 31.037 43.1774 27.9971 43.0957Z" fill="#1A2128"/>
<path fill-rule="evenodd" clip-rule="evenodd" d="M71.346 68.9511L72.2945 73.0789L73.6027 72.8216L73.7961 73.6627L70.2967 74.3506L70.1035 73.5098L71.408 73.2531L70.4594 69.1254L71.346 68.9511ZM76.3543 67.7137L77.7755 72.6205L74.5471 73.4206L74.3065 72.5902L76.6594 72.007L76.3442 70.9195L74.1582 71.4612L73.919 70.6354L76.105 70.0935L75.7182 68.758L73.2866 69.3606L73.0469 68.5336L76.3543 67.7137ZM78.9459 66.7433L80.5807 70.683L81.8293 70.2396L82.1624 71.0423L78.8225 72.2283L78.4895 71.4256L79.7344 70.9835L78.0996 67.0437L78.9459 66.7433ZM84.0462 64.5903L86.367 69.194L85.5825 69.5324L84.0361 66.4646L83.9326 70.2442L83.1075 70.6L80.7869 65.9962L81.5711 65.6579L83.0846 68.6602L83.2178 64.9477L84.0462 64.5903ZM86.5827 65.3887L85.6585 65.5687C85.4393 65.022 85.3859 64.5591 85.4994 64.178C85.6135 63.7977 85.8664 63.4892 86.2581 63.2539C86.75 62.9583 87.272 62.8944 87.8238 63.0611C88.4604 63.2537 89.0198 63.6946 89.5028 64.3819C90.0128 65.109 90.2352 65.7838 90.1684 66.4079C90.1105 66.9487 89.8229 67.3751 89.3033 67.6874C88.8807 67.9413 88.4326 68.0201 87.9605 67.9246C87.6239 67.8558 87.2772 67.6637 86.9201 67.3465L87.5314 66.6903C87.7417 66.8923 87.9613 67.0116 88.1909 67.0482C88.4214 67.0848 88.6337 67.0446 88.828 66.9281C89.1067 66.7606 89.2555 66.5118 89.2732 66.1811C89.2917 65.8514 89.1191 65.4275 88.7556 64.9098C88.3792 64.373 88.0252 64.0427 87.6947 63.9196C87.3637 63.7956 87.0613 63.8163 86.787 63.9813C86.5851 64.1024 86.4624 64.2792 86.4174 64.5107C86.3723 64.7435 86.427 65.0366 86.5827 65.3887ZM93.2635 64.0946L92.3477 62.9291L91.9415 63.2023C91.6685 63.3859 91.4967 63.5275 91.4264 63.6291C91.3568 63.7297 91.3266 63.8481 91.3375 63.9826C91.3471 64.1179 91.4047 64.2517 91.5108 64.3865C91.6174 64.5225 91.7405 64.6167 91.8776 64.6665C92.0163 64.7162 92.145 64.7249 92.2657 64.6936C92.3855 64.6612 92.5983 64.5418 92.9055 64.3353L93.2635 64.0946ZM91.3154 60.1877L94.5432 64.2972L93.3604 65.0919C92.92 65.3881 92.6168 65.5613 92.4503 65.6132C92.1849 65.6951 91.9001 65.679 91.5973 65.5668C91.2933 65.4537 91.0133 65.2339 90.756 64.9068C90.5223 64.6093 90.3884 64.3194 90.3514 64.0372C90.3144 63.7549 90.3562 63.5121 90.4744 63.3083C90.5915 63.1055 90.8726 62.8535 91.3174 62.5545L91.7996 62.2306L90.5818 60.6806L91.3154 60.1877ZM94.4354 57.5279L98.1096 61.3029L95.6258 63.3717L95.0044 62.7326L96.8142 61.225L95.9998 60.3882L94.3179 61.7891L93.6994 61.1536L95.3813 59.7527L94.3811 58.7253L92.5102 60.2836L91.8909 59.6471L94.4354 57.5279ZM98.6485 56.4059L97.4918 55.5701L96.9722 56.1853C96.7446 56.4546 96.6147 56.638 96.5801 56.736C96.5455 56.8345 96.552 56.9425 96.5974 57.0596C96.6437 57.1756 96.7346 57.2832 96.8729 57.3829C97.0149 57.4856 97.154 57.5415 97.2924 57.5525C97.4311 57.5631 97.557 57.5353 97.668 57.4684C97.7806 57.4011 97.9567 57.2251 98.1956 56.9418L98.6485 56.4059ZM100.369 57.6497L99.3687 56.9266L98.9996 57.3638C98.7784 57.6258 98.6469 57.7914 98.6038 57.8612C98.5278 57.9878 98.5053 58.1126 98.5347 58.2373C98.5644 58.3612 98.6517 58.4751 98.7957 58.5792C98.9235 58.6718 99.049 58.7215 99.1725 58.7268C99.296 58.7321 99.3981 58.7054 99.4805 58.6464C99.5618 58.5866 99.7508 58.3823 100.046 58.0327L100.369 57.6497ZM101.648 57.5095L100.538 58.8236C100.235 59.1817 99.9873 59.4086 99.7926 59.5025C99.5996 59.5967 99.3704 59.6297 99.1061 59.6005C98.8439 59.5715 98.5978 59.4747 98.3722 59.3115C98.1635 59.1609 98.0114 58.9818 97.9153 58.7745C97.8196 58.567 97.7882 58.3658 97.8224 58.1714C97.5835 58.3125 97.3274 58.3719 97.0531 58.3508C96.7792 58.3315 96.5122 58.2269 96.252 58.0389C95.9379 57.8117 95.7308 57.5481 95.6318 57.2516C95.5325 56.9545 95.5385 56.692 95.6483 56.4637C95.7259 56.3049 95.968 55.9833 96.3766 55.4996L97.3205 54.382L101.648 57.5095ZM99.9471 50.9211L104.445 53.8347L103.949 54.4907L100.951 52.549L102.905 55.8702L102.382 56.5601L97.8844 53.6465L98.3806 52.9907L101.314 54.8907L99.4226 51.6139L99.9471 50.9211ZM101.635 46.9932L106.727 48.896L106.387 49.6735L104.384 48.9247L103.716 50.4546L105.719 51.2033L105.378 51.984L100.286 50.0811L100.628 49.3004L102.854 50.1323L103.522 48.6027L101.296 47.7705L101.635 46.9932ZM103.476 44.7564L107.66 43.9486L107.465 44.8739L104.467 45.319L107.093 46.6456L106.913 47.5001L103.106 45.3852C102.643 45.1261 102.326 44.898 102.155 44.7019C101.984 44.5076 101.923 44.2977 101.97 44.076C102.015 43.8624 102.077 43.676 102.157 43.5166L102.962 43.6616C102.923 43.7957 102.897 43.8981 102.882 43.9691C102.84 44.1675 102.856 44.3162 102.929 44.4125C103.004 44.5101 103.186 44.6249 103.476 44.7564ZM109.413 38.6331L109.494 39.0153C109.147 39.0558 108.862 39.013 108.645 38.887C108.425 38.7604 108.292 38.5781 108.242 38.3401C108.192 38.101 108.241 37.8861 108.394 37.6926C108.545 37.5003 108.79 37.3607 109.128 37.2771L109.208 37.6581C108.862 37.7506 108.719 37.9458 108.781 38.2431C108.844 38.5393 109.055 38.67 109.413 38.6331ZM102.144 37.7199L107.534 36.7507L107.699 37.5365L104.107 38.1823L108.046 39.1898L108.22 40.0165L102.83 40.9856L102.664 40.1998L106.18 39.5678L102.318 38.5501L102.144 37.7199ZM101.224 33.604L106.615 32.6349L106.78 33.4206L103.188 34.0664L107.127 35.0739L107.301 35.9006L101.91 36.8697L101.745 36.084L105.261 35.4519L101.399 34.4342L101.224 33.604ZM99.9487 30.2495L104.925 28.1029L105.309 28.8628L103.191 29.7765C103.298 29.9364 103.42 30.0272 103.552 30.0486C103.686 30.0704 103.972 30.0514 104.41 29.9914C104.849 29.9326 105.186 29.923 105.419 29.9624C105.651 30.0018 105.822 30.0784 105.925 30.1917C106.029 30.3048 106.168 30.5161 106.343 30.8255L105.597 31.1473L105.543 31.0402C105.435 30.8248 105.306 30.7025 105.16 30.6717C105.015 30.6417 104.767 30.6533 104.419 30.7054C104.07 30.7579 103.83 30.7768 103.7 30.7624C103.57 30.7495 103.422 30.6997 103.258 30.6154C103.267 30.8149 103.215 31.0042 103.1 31.1816C102.987 31.3597 102.771 31.6083 102.451 31.9261L101.35 33.0291L100.899 32.1338L101.955 31.1236C102.227 30.867 102.405 30.6688 102.494 30.5297C102.582 30.3912 102.586 30.2379 102.508 30.0708L100.332 31.0095L99.9487 30.2495ZM100.821 27.8913L101.031 28.743C100.444 28.9551 99.9451 29.0125 99.5308 28.9143C99.1182 28.8156 98.78 28.5869 98.519 28.2289C98.1908 27.7789 98.1128 27.2972 98.2829 26.7841C98.4804 26.1917 98.9469 25.6665 99.6816 25.2081C100.459 24.7234 101.184 24.5062 101.859 24.557C102.445 24.6011 102.911 24.8594 103.258 25.3349C103.54 25.7214 103.633 26.1341 103.538 26.5728C103.469 26.8851 103.267 27.2093 102.931 27.5449L102.211 26.9912C102.426 26.793 102.551 26.5878 102.586 26.3746C102.622 26.161 102.575 25.9653 102.445 25.7879C102.26 25.5329 101.988 25.3995 101.63 25.3889C101.273 25.3775 100.818 25.5446 100.265 25.8897C99.6913 26.2476 99.3406 26.5806 99.2135 26.8885C99.0852 27.1968 99.1126 27.4761 99.296 27.727C99.4303 27.9115 99.6233 28.022 99.8747 28.0594C100.127 28.0972 100.443 28.0415 100.821 27.8913ZM94.8432 23.7145L98.9879 20.3818L101.181 22.715L100.479 23.2791L98.8809 21.5786L97.9624 22.3174L99.4472 23.8974L98.7494 24.4583L97.265 22.8783L96.1365 23.7854L97.7882 25.5431L97.0897 26.1049L94.8432 23.7145ZM93.7987 18.4649L95.0865 17.0947L95.7706 17.6448L94.8146 18.6622C94.6147 18.8749 94.476 19.0406 94.3992 19.1605C94.32 19.2803 94.2938 19.4129 94.3175 19.5573C94.3421 19.7023 94.4515 19.8529 94.6453 20.0087C94.9357 20.2425 95.2329 20.3592 95.5373 20.3594L97.0905 18.7065L97.775 19.2566L94.1724 23.0903L93.4883 22.5401L94.9385 20.9967C94.5407 20.9169 94.2061 20.7666 93.9347 20.5485C93.5587 20.2459 93.3576 19.912 93.3322 19.5471C93.3069 19.1833 93.4625 18.8227 93.7987 18.4649ZM87.9585 18.4689L91.2635 14.4121L91.9544 14.8938L89.7526 17.5972L93.4086 15.9075L94.1358 16.4144L90.8308 20.4712L90.1398 19.9894L92.2946 17.3437L88.6888 18.9779L87.9585 18.4689ZM83.4231 15.9415L86.2512 11.5872L87.4164 12.235L86.1871 15.5945L88.8103 13.0097L89.9786 13.6592L87.1501 18.0132L86.4281 17.6118L88.6542 14.1843L85.6608 17.1853L84.9094 16.7675L86.375 12.9172L84.1485 16.3447L83.4231 15.9415ZM80.7899 12.1244C80.523 12.654 80.4319 13.0976 80.515 13.4557C80.5994 13.8146 80.8011 14.0634 81.1234 14.2025C81.4468 14.342 81.7808 14.3255 82.1264 14.1548C82.4718 13.9842 82.7806 13.6267 83.0553 13.0821C83.3243 12.5481 83.4199 12.1094 83.3416 11.7636C83.264 11.4195 83.0571 11.1749 82.7223 11.0306C82.3874 10.8861 82.0491 10.8967 81.7096 11.0636C81.3685 11.2311 81.062 11.5842 80.7899 12.1244ZM79.9258 11.7896C80.2025 11.2408 80.517 10.8271 80.8718 10.5484C81.2257 10.2689 81.5885 10.1031 81.9589 10.0515C82.3292 9.99956 82.7161 10.061 83.1191 10.2348C83.7033 10.4868 84.0746 10.8974 84.235 11.4691C84.3943 12.0402 84.2824 12.7071 83.8983 13.4694C83.5103 14.2389 83.0118 14.7573 82.4043 15.0226C81.8691 15.2589 81.3095 15.2498 80.723 14.9967C80.132 14.7418 79.7619 14.3511 79.6108 13.8252C79.4396 13.2242 79.5449 12.5454 79.9258 11.7896ZM74.6535 12.7453L76.4415 7.94226L77.2985 8.21521L76.5951 10.105L78.2816 10.6422L78.985 8.75238L79.8457 9.0266L78.0577 13.8296L77.1971 13.5554L77.9788 11.4551L76.2925 10.9179L75.5108 13.0182L74.6535 12.7453ZM71.3597 9.30525C71.1961 9.86954 71.1899 10.3212 71.3389 10.6604C71.4893 11.0003 71.7349 11.2129 72.0782 11.298C72.4229 11.3835 72.7486 11.3137 73.0572 11.09C73.3653 10.8665 73.6022 10.465 73.7705 9.88439C73.9353 9.31541 73.9469 8.86779 73.805 8.54003C73.6638 8.2135 73.4141 8.00599 73.0572 7.9177C72.7004 7.8292 72.3694 7.89397 72.0663 8.11272C71.7619 8.33229 71.5264 8.72954 71.3597 9.30525ZM70.4459 9.11425C70.6153 8.52943 70.8474 8.0712 71.1445 7.73984C71.4405 7.4078 71.7667 7.18634 72.1217 7.07581C72.4767 6.96546 72.8693 6.96357 73.2987 7.07008C73.9213 7.22443 74.3642 7.56915 74.6295 8.10658C74.8937 8.64334 74.9086 9.31798 74.6733 10.1304C74.4357 10.9505 74.0422 11.5411 73.4937 11.9C73.0107 12.2187 72.458 12.2995 71.8328 12.1446C71.2031 11.9885 70.7653 11.6632 70.5178 11.1694C70.2363 10.6052 70.2127 9.91973 70.4459 9.11425ZM66.1763 10.9164L67.224 5.92985L68.1139 6.08994L67.6678 8.21201C67.8708 8.22578 68.0221 8.18768 68.1183 8.10149C68.2162 8.01424 68.3678 7.78854 68.5731 7.42559C68.7796 7.06245 68.9691 6.80497 69.1403 6.65378C69.3115 6.50281 69.4784 6.42067 69.6384 6.40966C69.7984 6.39864 70.0648 6.41896 70.4384 6.46937L70.2814 7.21703L70.1559 7.19437C69.9037 7.14906 69.7215 7.17298 69.6084 7.26469C69.4969 7.35553 69.3614 7.5478 69.2026 7.8385C69.0435 8.1305 68.9187 8.3215 68.8297 8.41023C68.7418 8.50022 68.6113 8.58173 68.441 8.65476C68.6209 8.76551 68.7562 8.91522 68.8439 9.10558C68.9329 9.29509 69.0234 9.60298 69.1135 10.0288L69.4308 11.5015L68.3824 11.313L68.1201 9.92843C68.0551 9.5746 67.9862 9.32475 67.9173 9.17631C67.8479 9.02872 67.7165 8.93535 67.5243 8.89595L67.066 11.0763L66.1763 10.9164ZM63.2233 8.56563L63.2883 7.70766L64.6964 7.79892C64.6837 7.37246 64.5884 7.0379 64.412 6.7963C64.2354 6.55385 63.9978 6.42342 63.7021 6.40437C63.2187 6.37301 62.876 6.63306 62.6742 7.18548L61.7986 6.90006C61.9366 6.4264 62.1749 6.07297 62.5146 5.83778C62.854 5.60266 63.2615 5.50072 63.7372 5.5316C64.37 5.57252 64.8571 5.84224 65.1987 6.34336C65.5399 6.84329 65.68 7.501 65.6187 8.31388C65.5592 9.09967 65.3268 9.71645 64.9213 10.1633C64.5156 10.6113 64.0056 10.8144 63.3899 10.7746C62.3667 10.7083 61.7764 10.1247 61.6226 9.02407L62.5551 8.76172C62.5732 9.1128 62.6654 9.38658 62.8325 9.58349C62.9996 9.7804 63.2171 9.8884 63.4863 9.90578C64.0817 9.94432 64.4632 9.5278 64.6315 8.6567L63.2233 8.56563ZM55.4144 3.91886L55.8335 3.88501C55.8408 4.20867 55.7651 4.46537 55.6069 4.6525C55.4478 4.84112 55.2379 4.94491 54.9767 4.96575C54.7146 4.98732 54.4887 4.91887 54.2964 4.75853C54.1056 4.59967 53.9813 4.35897 53.9268 4.0394L54.3445 4.00555C54.4077 4.33405 54.6029 4.48583 54.9289 4.45942C55.2539 4.433 55.4165 4.25257 55.4144 3.91886ZM53.6725 10.5116L53.1939 5.45124L54.0561 5.3813L54.375 8.75346L55.8699 5.23435L56.7768 5.16106L57.2554 10.2215L56.3932 10.2913L56.0809 6.9911L54.5833 10.4379L53.6725 10.5116ZM51.9537 10.5747L51.475 5.51411L52.3781 5.4412L52.8567 10.5016L51.9537 10.5747ZM48.1864 8.67128L48.3126 10.0061L49.2678 9.92884C49.5164 9.90872 49.6944 9.8791 49.8022 9.8393C49.9103 9.79968 50 9.71753 50.0733 9.5964C50.1452 9.47445 50.1747 9.33892 50.1607 9.18944C50.1181 8.74055 49.7912 8.54148 49.1785 8.59103L48.1864 8.67128ZM47.4906 10.9359L47.012 5.87535L47.915 5.80243L48.1054 7.8148L49.3891 7.71082C49.8668 7.67209 50.2587 7.78407 50.5656 8.04538C50.8728 8.30666 51.0484 8.67002 51.0923 9.13542C51.1283 9.51467 51.0475 9.86787 50.8499 10.1961C50.6526 10.5245 50.2646 10.7114 49.685 10.7582L47.4906 10.9359ZM42.9284 11.6027L41.8808 6.61632L42.7705 6.45623L43.1827 8.41827L44.9336 8.10338L44.5213 6.14157L45.415 5.98086L46.4626 10.9672L45.569 11.128L45.111 8.94762L43.3601 9.26228L43.8182 11.4428L42.9284 11.6027ZM38.5324 12.6311L37.0189 7.7481L37.8901 7.51707L38.4857 9.43825L40.2002 8.98341L39.6046 7.06227L40.4797 6.8302L41.9934 11.713L41.1183 11.9451L40.4563 9.81005L38.7419 10.2649L39.4038 12.3999L38.5324 12.6311ZM34.6313 13.873L32.6634 9.13077L35.7836 8.02273L36.1166 8.82545L33.8428 9.63282L34.279 10.6841L36.3918 9.93394L36.723 10.732L34.6102 11.4824L35.1458 12.7732L37.4962 11.9385L37.8279 12.7381L34.6313 13.873ZM30.2877 13.1275L30.8613 14.3772L31.638 14.0721C31.9781 13.9387 32.1883 13.8368 32.27 13.7663C32.3515 13.6956 32.4028 13.5984 32.4243 13.4758C32.4444 13.3534 32.4213 13.2185 32.3528 13.0695C32.2823 12.9157 32.1898 12.8045 32.0749 12.7328C31.9587 12.6612 31.8344 12.6292 31.7021 12.6377C31.5684 12.6464 31.3223 12.7211 30.9646 12.8617L30.2877 13.1275ZM29.4344 11.2677L29.9306 12.3489L30.4825 12.1322C30.8135 12.0023 31.0154 11.9165 31.0896 11.8746C31.2225 11.7979 31.3075 11.699 31.3473 11.5767C31.3858 11.4549 31.3695 11.3162 31.2981 11.1605C31.2347 11.0223 31.1513 10.9226 31.0458 10.8624C30.9405 10.8025 30.8371 10.7801 30.7343 10.7947C30.6317 10.8105 30.3596 10.9046 29.9183 11.0778L29.4344 11.2677ZM28.243 10.8171L29.9025 10.1656C30.3543 9.98792 30.6906 9.9009 30.9099 9.90596C31.1283 9.9102 31.3457 9.98413 31.5618 10.1281C31.776 10.2713 31.9403 10.4663 32.0525 10.7102C32.1557 10.9355 32.1951 11.1604 32.1702 11.3846C32.1452 11.609 32.0674 11.799 31.9356 11.9537C32.2185 11.9375 32.4737 12.0004 32.7024 12.142C32.932 12.2818 33.1107 12.4931 33.2396 12.7738C33.3955 13.1137 33.4385 13.4372 33.3694 13.7407C33.3007 14.0449 33.1577 14.2721 32.9418 14.4223C32.791 14.5265 32.4105 14.699 31.7996 14.9389L30.3884 15.4931L28.243 10.8171ZM27.949 16.7011L25.7374 13.0102L24.5675 13.61L24.117 12.8581L27.2459 11.2537L27.6966 12.0056L26.5301 12.6036L28.7417 16.2945L27.949 16.7011ZM24.3908 16.4006L25.3076 16.1908C25.5472 16.7301 25.6179 17.1908 25.5191 17.5756C25.4195 17.9593 25.1782 18.2758 24.7957 18.5236C24.3153 18.8348 23.7957 18.9157 23.2383 18.7669C22.5944 18.5949 22.0187 18.1725 21.5106 17.501C20.9732 16.7908 20.7257 16.1236 20.7687 15.4979C20.8061 14.9554 21.0773 14.5201 21.5852 14.191C21.9979 13.9236 22.4424 13.8307 22.9183 13.9107C23.2571 13.9685 23.6107 14.1493 23.9795 14.4549L23.3935 15.1306C23.1758 14.9353 22.9517 14.8231 22.7206 14.7941C22.4891 14.7649 22.2783 14.8119 22.0888 14.9347C21.8166 15.1111 21.6772 15.3643 21.672 15.6955C21.6658 16.0258 21.8542 16.4436 22.2371 16.9494C22.6338 17.4737 23 17.7922 23.3349 17.9046C23.6705 18.0179 23.9717 17.9874 24.2397 17.8138C24.4369 17.6863 24.5529 17.5055 24.5891 17.2728C24.6254 17.0384 24.5598 16.7475 24.3908 16.4006ZM17.8031 18.0139L18.762 19.1493L19.1577 18.8632C19.4239 18.6707 19.5899 18.5236 19.6565 18.4198C19.7222 18.3171 19.7481 18.1979 19.732 18.0639C19.7172 17.929 19.6547 17.7971 19.5437 17.6656C19.4317 17.5332 19.3054 17.443 19.1664 17.3977C19.0259 17.3524 18.897 17.3479 18.7775 17.3833C18.6592 17.4193 18.4509 17.5457 18.1517 17.7619L17.8031 18.0139ZM19.8973 21.8556L16.5167 17.8527L17.6683 17.0204C18.0975 16.7102 18.3941 16.5272 18.5583 16.47C18.8208 16.3796 19.106 16.3866 19.4128 16.4889C19.7206 16.592 20.009 16.8027 20.278 17.1214C20.5229 17.411 20.668 17.6965 20.7154 17.9773C20.7628 18.2582 20.7305 18.5024 20.6199 18.7097C20.5107 18.9163 20.2393 19.177 19.806 19.4901L19.3365 19.8296L20.6117 21.3393L19.8973 21.8556ZM16.8056 21.8727L14.8929 21.0056L15.9676 22.704L16.8056 21.8727ZM19.5357 22.1109L18.8615 22.7796L17.6802 22.2587L16.4545 23.4748L17.1141 24.513L16.4549 25.167L13.6344 20.5167L14.2909 19.8654L19.5357 22.1109ZM11.7213 23.8936L10.9712 24.9223C12.3141 25.7601 13.2514 26.482 13.7784 27.0876L14.7356 25.7745L11.7213 23.8936ZM15.2427 25.0794L15.4606 24.7804L17.2224 25.8796L16.8056 26.4513L15.8145 25.8328L14.2243 28.0135L15.2154 28.632L14.7988 29.2035L13.037 28.1044L13.2464 27.817C13.0109 27.506 12.6884 27.1777 12.283 26.835C11.8758 26.4925 11.2257 26.0411 10.3312 25.4829L9.72276 25.1033L11.4608 22.7197L15.2427 25.0794ZM11.3459 29.7509L7.08335 29.4606L7.54592 28.6206L10.5605 28.957L8.43177 27.0124L8.85891 26.2368L11.8881 29.2404C12.2567 29.6077 12.4934 29.9078 12.5996 30.1399C12.7053 30.37 12.7016 30.5875 12.5906 30.7889C12.484 30.9826 12.3681 31.1459 12.2448 31.2788L11.5134 30.9341C11.5906 30.8151 11.6466 30.7234 11.6822 30.6591C11.7812 30.4788 11.8106 30.3319 11.7687 30.2207C11.7261 30.1077 11.5856 29.9512 11.3459 29.7509ZM9.47989 32.4439L9.96792 31.696C10.5498 31.9204 10.9519 32.1999 11.176 32.5366C11.399 32.8732 11.4702 33.2548 11.3891 33.68C11.2873 34.2144 10.9817 34.6115 10.474 34.8708C9.88713 35.1705 9.15716 35.2482 8.28458 35.1059C7.36169 34.9553 6.6768 34.6455 6.22886 34.1749C5.84061 33.7668 5.69945 33.2815 5.80723 32.7166C5.8945 32.2577 6.13797 31.9011 6.5356 31.6464C6.8194 31.4658 7.20786 31.3623 7.70204 31.337L7.80415 32.198C7.50083 32.2024 7.25684 32.2698 7.07096 32.4004C6.88512 32.5311 6.77203 32.7022 6.73173 32.9131C6.67406 33.2158 6.7693 33.486 7.01856 33.7238C7.26669 33.9612 7.71945 34.1336 8.37683 34.2407C9.05802 34.3519 9.56049 34.3377 9.88323 34.1981C10.2069 34.0588 10.3966 33.8401 10.4537 33.5417C10.4953 33.3228 10.4392 33.1191 10.287 32.9309C10.1337 32.7413 9.86445 32.5787 9.47989 32.4439ZM7.56172 38.7354C8.18363 38.8368 8.67049 38.8034 9.02279 38.6365C9.37577 38.4682 9.58337 38.2234 9.64518 37.8997C9.70696 37.5744 9.60352 37.2803 9.33568 37.0156C9.06812 36.7511 8.61512 36.5678 7.97535 36.4634C7.34817 36.3611 6.86517 36.3891 6.52458 36.5485C6.18515 36.7071 5.98338 36.9553 5.91944 37.292C5.85509 37.6284 5.95362 37.9278 6.21604 38.1881C6.47905 38.4496 6.92723 38.6318 7.56172 38.7354ZM7.4356 39.594C6.79101 39.489 6.27737 39.3152 5.8945 39.0702C5.51124 38.8262 5.2442 38.5448 5.0946 38.2274C4.94459 37.91 4.90839 37.5484 4.98561 37.1433C5.09781 36.5559 5.4304 36.1178 5.9858 35.8267C6.54082 35.5364 7.26601 35.4637 8.16143 35.6098C9.06538 35.7572 9.73559 36.0685 10.1698 36.5426C10.5553 36.9599 10.6905 37.4622 10.5782 38.0517C10.4648 38.6458 10.1526 39.0776 9.64265 39.3488C9.05943 39.6573 8.32351 39.7388 7.4356 39.594ZM10.6253 43.2583L5.29769 44.306L4.63854 41.4379L5.54784 41.2592L6.01837 43.307L10.4369 42.4382L10.6253 43.2583ZM4.58666 48.1536L4.49939 47.7729C4.84525 47.7267 5.12999 47.7648 5.35037 47.8872C5.57197 48.0105 5.7087 48.1904 5.7634 48.4276C5.81809 48.6658 5.77225 48.8815 5.62385 49.0776C5.47665 49.2722 5.23374 49.4156 4.89713 49.5047L4.80986 49.1253C5.15492 49.0272 5.29367 48.8295 5.2257 48.5333C5.15814 48.2381 4.94419 48.1108 4.58666 48.1536ZM11.8726 48.9493L6.50125 50.0055L6.32132 49.2223L9.9006 48.5186L5.94276 47.5749L5.75334 46.7512L11.1248 45.695L11.3047 46.4783L7.80186 47.1668L11.6824 48.122L11.8726 48.9493ZM13.9709 52.6834L9.16813 55.1462L8.74856 54.446L11.949 52.805L7.86592 52.9729L7.42462 52.2365L12.2274 49.7736L12.647 50.4739L9.51468 52.08L13.5277 51.9438L13.9709 52.6834ZM16.2718 55.477L11.9444 58.6042L11.3864 57.9436L13.2281 56.6126C13.0846 56.479 12.9436 56.4159 12.8097 56.4226C12.6739 56.429 12.3995 56.5073 11.987 56.6568C11.5739 56.8055 11.2481 56.8849 11.0117 56.895C10.7755 56.905 10.5912 56.8658 10.4628 56.7769C10.3341 56.6882 10.1474 56.5111 9.90108 56.2464L10.55 55.7774L10.6285 55.8706C10.7869 56.058 10.9414 56.1505 11.0916 56.1499C11.2401 56.1491 11.4789 56.086 11.8048 55.9629C12.1319 55.8393 12.3615 55.7709 12.4918 55.758C12.622 55.7434 12.7781 55.7609 12.9585 55.809C12.9012 55.6165 12.9054 55.4215 12.9743 55.2246C13.0414 55.0274 13.1915 54.7403 13.4254 54.3641L14.2305 53.0601L14.8879 53.8385L14.1041 55.0427C13.9022 55.3493 13.777 55.5795 13.7237 55.7336C13.6715 55.8869 13.7042 56.0373 13.8214 56.1836L15.7137 54.8161L16.2718 55.477ZM15.9227 57.9493L15.5553 57.1445C16.0937 56.841 16.5746 56.7045 17.0008 56.7345C17.4261 56.7657 17.8018 56.9365 18.1261 57.2472C18.5335 57.6374 18.7011 58.0994 18.6297 58.632C18.5466 59.2471 18.1856 59.8393 17.5481 60.4087C16.874 61.0109 16.2004 61.3412 15.5256 61.3999C14.9405 61.4507 14.4333 61.2709 14.0025 60.8582C13.6525 60.523 13.4836 60.1316 13.4946 59.6841C13.5035 59.3654 13.6411 59.014 13.9096 58.6294L14.7226 59.059C14.5484 59.2886 14.4637 59.5109 14.4688 59.7265C14.4735 59.9427 14.5569 60.1277 14.7175 60.2819C14.9485 60.503 15.2408 60.5906 15.5954 60.5436C15.9488 60.4977 16.3656 60.2601 16.8456 59.8311C17.3432 59.3866 17.6262 59.0023 17.6939 58.6788C17.7624 58.3544 17.6825 58.084 17.4552 57.8661C17.2881 57.7062 17.0771 57.6283 16.823 57.6317C16.5671 57.6351 16.2665 57.7407 15.9227 57.9493ZM20.6277 62.3864L21.5713 61.3463L20.9246 60.8445C20.6417 60.6247 20.448 60.4979 20.3432 60.4625C20.2382 60.4274 20.1212 60.4293 19.9932 60.4674C19.8662 60.5061 19.7469 60.5864 19.6343 60.7105C19.5182 60.8383 19.4532 60.9652 19.4363 61.0924C19.4201 61.2207 19.4457 61.3379 19.5139 61.4431C19.583 61.5492 19.7669 61.7181 20.0644 61.9492L20.6277 62.3864ZM19.2239 63.9339L20.0401 63.0341L19.5807 62.6776C19.3054 62.4639 19.131 62.3362 19.057 62.2943C18.9229 62.2196 18.789 62.1944 18.653 62.2172C18.5184 62.2405 18.3921 62.317 18.2747 62.4465C18.1703 62.5615 18.1121 62.6757 18.1021 62.7898C18.092 62.9039 18.1174 62.9992 18.1781 63.0773C18.2399 63.1546 18.4539 63.3363 18.8212 63.6215L19.2239 63.9339ZM19.3308 65.1207L17.9498 64.0486C17.5738 63.7566 17.3371 63.5191 17.2425 63.3361C17.1473 63.154 17.1198 62.9414 17.1604 62.6979C17.2011 62.4563 17.3142 62.2322 17.4982 62.0292C17.6685 61.8418 17.867 61.7074 18.0945 61.626C18.3218 61.5445 18.5404 61.5225 18.7492 61.561C18.6052 61.3351 18.5498 61.0963 18.5823 60.8434C18.6127 60.5908 18.7352 60.3475 18.9472 60.1138C19.2035 59.8311 19.4956 59.6488 19.8193 59.5681C20.1436 59.4864 20.4272 59.5012 20.6701 59.6109C20.8388 59.688 21.178 59.9232 21.6862 60.3179L22.8606 61.2292L19.3308 65.1207ZM24.852 65.5056C25.1959 65.0159 25.3529 64.5881 25.3243 64.2229C25.2948 63.8568 25.1324 63.5843 24.8342 63.4051C24.535 63.2253 24.2017 63.1984 23.8337 63.3232C23.4661 63.4477 23.1065 63.7619 22.7526 64.2659C22.4058 64.7599 22.2451 65.1821 22.2705 65.5344C22.2957 65.8855 22.4639 66.154 22.7739 66.3401C23.0836 66.5262 23.4201 66.5592 23.7815 66.4377C24.1445 66.316 24.5009 66.0056 24.852 65.5056ZM25.6571 65.9486C25.3007 66.4563 24.9269 66.8258 24.5337 67.056C24.1413 67.2872 23.7568 67.4048 23.3823 67.4081C23.0078 67.4118 22.634 67.3012 22.2611 67.0772C21.7205 66.7524 21.4145 66.298 21.3417 65.7112C21.2698 65.1251 21.4809 64.4791 21.9762 63.7738C22.4761 63.0617 23.0477 62.6126 23.689 62.4281C24.2549 62.263 24.8076 62.3441 25.3504 62.6702C25.8972 62.9986 26.2049 63.4331 26.2754 63.9734C26.3545 64.5904 26.1481 65.2492 25.6571 65.9486ZM29.5117 64.9775L27.3699 68.7036L28.5508 69.2844L28.1145 70.0435L24.9557 68.4897L25.392 67.7308L26.5695 68.31L28.7113 64.5839L29.5117 64.9775ZM31.1738 67.7429L30.4731 67.157C30.8224 66.6717 31.1958 66.3596 31.5959 66.2205C31.9953 66.0822 32.414 66.0902 32.8498 66.245C33.3976 66.4396 33.7603 66.7928 33.9389 67.3033C34.1447 67.8933 34.0879 68.5711 33.7704 69.3363C33.4346 70.1456 32.975 70.7084 32.3902 71.0254C31.8832 71.3 31.3413 71.3356 30.7624 71.13C30.2921 70.9631 29.9599 70.6741 29.7656 70.2644C29.628 69.9721 29.5923 69.5997 29.6599 69.1461L30.593 69.2177C30.54 69.494 30.5647 69.7284 30.6679 69.922C30.7712 70.1159 30.9312 70.2512 31.1472 70.3279C31.4574 70.4382 31.7625 70.4033 32.0621 70.2222C32.3615 70.0422 32.6307 69.6641 32.8699 69.0875C33.1178 68.4901 33.1986 68.0313 33.1121 67.7116C33.026 67.3908 32.8301 67.1769 32.5245 67.0683C32.3002 66.9887 32.0733 67.0005 31.8445 67.103C31.6142 67.2061 31.3901 67.4194 31.1738 67.7429ZM37.669 70.6296C37.8535 70.071 37.8768 69.62 37.7407 69.2762C37.6033 68.9317 37.366 68.711 37.026 68.6149C36.6847 68.5185 36.3563 68.5776 36.0397 68.7913C35.7234 69.0047 35.4714 69.3983 35.2814 69.973C35.0953 70.5365 35.0667 70.9832 35.196 71.3155C35.3249 71.6464 35.5666 71.8618 35.9198 71.9617C36.2732 72.0616 36.6065 72.0077 36.9175 71.7987C37.2302 71.5891 37.4806 71.1997 37.669 70.6296ZM38.5748 70.8501C38.3834 71.4292 38.1343 71.8796 37.8247 72.2012C37.5166 72.5235 37.1821 72.7344 36.8232 72.8333C36.4643 72.9321 36.072 72.9211 35.6467 72.8008C35.0303 72.6266 34.6006 72.2677 34.3559 71.7222C34.1122 71.1772 34.1225 70.5024 34.3885 69.6982C34.6567 68.8861 35.0724 68.3087 35.6341 67.9678C36.1285 67.6648 36.6841 67.6019 37.303 67.7768C37.9265 67.9532 38.3518 68.2924 38.5807 68.7938C38.8405 69.3668 38.8385 70.0526 38.5748 70.8501ZM41.2968 73.3094L41.6736 71.9115L41.1863 71.7991C40.8585 71.7235 40.631 71.693 40.5014 71.7082C40.3734 71.7237 40.2563 71.7783 40.1516 71.8726C40.0459 71.9664 39.9722 72.0932 39.9285 72.255C39.8845 72.418 39.8857 72.5658 39.9326 72.695C39.9806 72.8252 40.056 72.922 40.1597 72.9872C40.2633 73.0513 40.4991 73.1255 40.8676 73.2104L41.2968 73.3094ZM43.28 69.4176L41.9517 74.3464L40.5335 74.0192C40.0051 73.8975 39.6666 73.7939 39.5167 73.7092C39.2779 73.5737 39.1086 73.3615 39.0067 73.0749C38.9051 72.7869 38.9069 72.4472 39.0126 72.0547C39.109 71.6979 39.2626 71.4165 39.4725 71.2089C39.6828 71.0014 39.9106 70.8748 40.1553 70.8276C40.3986 70.78 40.7878 70.8174 41.3213 70.9405L41.8995 71.0739L42.4006 69.2147L43.28 69.4176Z" fill="#FFF100"/>
<path fill-rule="evenodd" clip-rule="evenodd" d="M51.3346 75.1339V71.2957H52.3747C52.5192 71.291 52.6639 71.3026 52.8055 71.3303C52.9374 71.3594 53.0581 71.4216 53.1547 71.5101C53.2612 71.6164 53.34 71.7442 53.385 71.8835C53.4453 72.053 53.4754 72.2306 53.4741 72.4091C53.4844 72.7006 53.4045 72.9886 53.2438 73.239C53.0527 73.4837 52.7346 73.6132 52.4118 73.5779H51.6689V75.1408L51.3346 75.1339ZM51.7135 73.1214H52.4564C52.648 73.1393 52.8376 73.0728 52.969 72.9416C53.0789 72.7888 53.1311 72.6064 53.1175 72.4229C53.1223 72.2801 53.0918 72.1381 53.0284 72.008C52.9823 71.9071 52.8975 71.8258 52.7907 71.7798C52.675 71.7634 52.5572 71.7634 52.4415 71.7798H51.6986L51.7135 73.1214Z" fill="#FFE600"/>
<path fill-rule="evenodd" clip-rule="evenodd" d="M54.3804 71.2959H54.7221V74.3388L56.2079 71.2959H56.5793V75.1341H56.2376V72.0981L54.7518 75.1341H54.3729L54.3804 71.2959Z" fill="#FFE600"/>
<path fill-rule="evenodd" clip-rule="evenodd" d="M57.6342 75.1341V71.2959H58.013V72.8727H59.4988V71.2959H59.8777V75.1341H59.4988V73.3222H58.013V75.1341H57.6342Z" fill="#FFE600"/>
<path fill-rule="evenodd" clip-rule="evenodd" d="M60.5837 75.1341L61.6758 73.1493L60.71 71.2959H61.1632L61.6832 72.2848C61.7872 72.4854 61.8615 72.6445 61.9061 72.7482C61.973 72.6099 62.0472 72.4647 62.1364 72.3125L62.701 71.2959H63.1096L62.129 73.1216L63.1913 75.1341H62.7307L61.9878 73.751L61.869 73.5158L61.7427 73.7786L60.9998 75.1134L60.5837 75.1341Z" fill="#FFE600"/>
<path fill-rule="evenodd" clip-rule="evenodd" d="M50.8888 70.542C50.1421 71.2929 49.7396 72.2854 49.767 73.3083C49.7496 74.3296 50.1507 75.3187 50.8888 76.0746H50.2721C49.5051 75.3327 49.0856 74.3378 49.1058 73.3083C49.0936 72.2801 49.5119 71.2879 50.2721 70.542H50.8888Z" fill="#FFE600"/>
<path fill-rule="evenodd" clip-rule="evenodd" d="M64.261 70.542C65.0212 71.2879 65.4396 72.2801 65.4274 73.3083C65.4476 74.3378 65.0281 75.3327 64.261 76.0746H63.6444C64.3825 75.3187 64.7836 74.3296 64.7662 73.3083C64.7936 72.2854 64.3911 71.2929 63.6444 70.542H64.261Z" fill="#FFE600"/>
</svg>
